<?xml version="1.0" encoding="utf-8"?>
<!-- Generator: Adobe Illustrator 17.1.0, SVG Export Plug-In . SVG Version: 6.00 Build 0)  -->
<svg version="1.2" baseProfile="tiny" xmlns="http://www.w3.org/2000/svg" xmlns:xlink="http://www.w3.org/1999/xlink" x="0px"
	 y="0px" viewBox="0 0 200 205" overflow="scroll" xml:space="preserve">
<g id="Layer_1">
</g>
<g id="Layer_2">
	<rect x="15" y="158" fill="none" width="173" height="25"/>
	<text transform="matrix(1 0 0 1 68.7046 175.3281)" font-family="'NeutrafaceText-Book'" font-size="24">T</text>
	<text transform="matrix(1 0 0 1 79.1689 175.3281)" font-family="'NeutrafaceText-Book'" font-size="24">r</text>
	<text transform="matrix(1 0 0 1 87.377 175.3281)" font-family="'NeutrafaceText-Book'" font-size="24">a</text>
	<text transform="matrix(1 0 0 1 98.6812 175.3281)" font-family="'NeutrafaceText-Book'" font-size="24">n</text>
	<text transform="matrix(1 0 0 1 111.0645 175.3281)" font-family="'NeutrafaceText-Book'" font-size="24">s</text>
	<text transform="matrix(1 0 0 1 120.9043 175.3281)" font-family="'NeutrafaceText-Book'" font-size="24">i</text>
	<text transform="matrix(1 0 0 1 126.2324 175.3281)" font-family="'NeutrafaceText-Book'" font-size="24">t</text>
	<path fill="#333333" d="M130.7,119.1h6.3c1.9,0,3.5-1.6,3.5-3.5V48.6c0-4.8-3.9-8.7-8.7-8.7h-19.1v-5H90.4v5H71.3
		c-4.8,0-8.7,3.9-8.7,8.7v67.1c0,1.9,1.6,3.5,3.5,3.5h6.3l-25.2,19.4h16.2l19.7-19.4h36.9l19.7,19.4h16.2L130.7,119.1z M119.9,108.2
		c0-2.9,2.4-5.3,5.3-5.3c2.9,0,5.3,2.4,5.3,5.3c0,2.9-2.4,5.3-5.3,5.3C122.3,113.5,119.9,111.1,119.9,108.2z M78.1,113.5
		c-2.9,0-5.3-2.4-5.3-5.3c0-2.9,2.4-5.3,5.3-5.3c2.9,0,5.3,2.4,5.3,5.3C83.4,111.1,81,113.5,78.1,113.5z M73,85.9
		c-1,0-1.7-0.8-1.7-1.7V50.5c0-1,0.8-1.7,1.7-1.7h57c1,0,1.7,0.8,1.7,1.7v33.7c0,1-0.8,1.7-1.7,1.7H73L73,85.9z"/>
</g>
</svg>
