<?xml version="1.0" encoding="utf-8"?>
<!-- Generator: Adobe Illustrator 17.1.0, SVG Export Plug-In . SVG Version: 6.00 Build 0)  -->
<svg version="1.2" baseProfile="tiny" xmlns="http://www.w3.org/2000/svg" xmlns:xlink="http://www.w3.org/1999/xlink" x="0px"
	 y="0px" viewBox="0 0 200 205" overflow="scroll" xml:space="preserve">
<g id="Layer_1">
</g>
<g id="Layer_2">
	<rect x="35" y="158" fill="none" width="131.6" height="23.6"/>
	<text transform="matrix(1 0 0 1 39.6401 175.3281)" fill="#333333" font-family="'NeutrafaceText-Book'" font-size="24">M</text>
	<text transform="matrix(1 0 0 1 59.3682 175.3281)" fill="#333333" font-family="'NeutrafaceText-Book'" font-size="24">y</text>
	<text transform="matrix(1 0 0 1 70.4561 175.3281)" fill="#333333" font-family="'NeutrafaceText-Book'" font-size="24"> </text>
	<text transform="matrix(1 0 0 1 76.144 175.3281)" fill="#333333" font-family="'NeutrafaceText-Book'" font-size="24">L</text>
	<text transform="matrix(1 0 0 1 88.1914 175.3281)" fill="#333333" font-family="'NeutrafaceText-Book'" font-size="24">o</text>
	<text transform="matrix(1 0 0 1 101.0068 175.3281)" fill="#333333" font-family="'NeutrafaceText-Book'" font-size="24">c</text>
	<text transform="matrix(1 0 0 1 112.2148 175.3281)" fill="#333333" font-family="'NeutrafaceText-Book'" font-size="24">a</text>
	<text transform="matrix(1 0 0 1 123.3984 175.3281)" fill="#333333" font-family="'NeutrafaceText-Book'" font-size="24">t</text>
	<text transform="matrix(1 0 0 1 131.4629 175.3281)" fill="#333333" font-family="'NeutrafaceText-Book'" font-size="24">i</text>
	<text transform="matrix(1 0 0 1 136.791 175.3281)" fill="#333333" font-family="'NeutrafaceText-Book'" font-size="24">o</text>
	<text transform="matrix(1 0 0 1 149.6074 175.3281)" fill="#333333" font-family="'NeutrafaceText-Book'" font-size="24">n</text>
	<g>
		<path fill="#333333" d="M92.2,127v9.4h16v-9.4c18.1-3.4,32.4-17.7,35.7-35.9h9.2V75h-9.2c-3.3-18.2-17.6-32.5-35.7-35.9v-9.4h-16
			V39c-18.4,3.2-32.8,17.7-36.2,36h-9.2v16h9.2C59.4,109.3,73.9,123.8,92.2,127z M100,50.8c17.8,0,32.2,14.5,32.2,32.2
			s-14.5,32.2-32.2,32.2c-17.8,0-32.2-14.5-32.2-32.2S82.2,50.8,100,50.8z"/>
	</g>
	<circle fill="#333333" cx="100.3" cy="83" r="12.7"/>
</g>
</svg>
