<?xml version="1.0" encoding="utf-8"?>
<!-- Generator: Adobe Illustrator 17.1.0, SVG Export Plug-In . SVG Version: 6.00 Build 0)  -->
<svg version="1.2" baseProfile="tiny" xmlns="http://www.w3.org/2000/svg" xmlns:xlink="http://www.w3.org/1999/xlink" x="0px"
	 y="0px" viewBox="0 0 200 205" xml:space="preserve">
<g id="Layer_1">
</g>
<g id="Layer_2">
	<path fill="#333333" d="M171.1,76.6l-1.6-4.7c-0.9-2.6-3.7-4.7-6.3-4.7h-5.8c-4.4-12.3-9.8-27.2-11.3-30.6
		c-2.4-5.4-10.2-7.9-14.4-9c0,0-7.1-2.7-30.9-2.7s-30.9,2.7-30.9,2.7c-5,1.7-11.9,4-14.7,9.3c-1.3,2.5-6.7,17.8-11.2,30.4h-5.7
		c-2.6,0-5.4,2.1-6.3,4.7l-1.6,4.7c-0.9,2.6,0.5,4.7,3.1,4.7H39c-0.7,2.1-1.2,3.4-1.2,3.4c-0.5,0.8-0.8,4.3-0.8,5.2v26.7v1.9v14.4
		c0,2.8,2.2,5,5,5h18.3c2.8,0,5-2.2,5-5v-9.1H136v9.1c0,2.8,2.2,5,5,5h18.3c2.8,0,5-2.2,5-5v-14.4v-1.9V90c0-0.9-0.3-4.5-0.8-5.2
		c0,0-0.5-1.3-1.2-3.4h5.7C170.6,81.3,172,79.2,171.1,76.6z M65.2,102.9h-7.6c-6.8,0-13.5-0.9-13.5-5.2v-5.2c0-5,2.9-5.2,6.1-5.2
		c3.1,0,9.2,2.6,13.2,4.4c4.4,2,9.3,3.6,9.3,6.8C72.6,101.5,70.9,102.9,65.2,102.9z M54.7,69.1c3.7-15.4,7.8-24.2,8.7-26.6
		c0.7-1.8,1.4-7.2,37.3-7.2c35.9,0,36.8,6.2,36.8,6.3c1.1,3.3,5.5,13.3,9,27.5c0,0-15.2,5.2-45.9,5.2S54.7,69.1,54.7,69.1z
		 M128.7,98.5c0-3.3,4.9-4.9,9.3-6.8c4-1.8,10.1-4.4,13.2-4.4c3.1,0,6.1,0.2,6.1,5.2v5.2h0c0,4.3-6.8,5.2-13.5,5.2h-7.6
		C130.4,102.9,128.7,101.5,128.7,98.5z"/>
	<rect x="15" y="158" fill="none" width="173" height="25"/>
	<text transform="matrix(1 0 0 1 66.4604 175.3281)" font-family="'NeutrafaceText-Book'" font-size="24">D</text>
	<text transform="matrix(1 0 0 1 82.6606 175.3281)" font-family="'NeutrafaceText-Book'" font-size="24">r</text>
	<text transform="matrix(1 0 0 1 91.2285 175.3281)" font-family="'NeutrafaceText-Book'" font-size="24">i</text>
	<text transform="matrix(1 0 0 1 96.5562 175.3281)" font-family="'NeutrafaceText-Book'" font-size="24">v</text>
	<text transform="matrix(1 0 0 1 107.6436 175.3281)" font-family="'NeutrafaceText-Book'" font-size="24">i</text>
	<text transform="matrix(1 0 0 1 112.9717 175.3281)" font-family="'NeutrafaceText-Book'" font-size="24">n</text>
	<text transform="matrix(1 0 0 1 125.2363 175.3281)" font-family="'NeutrafaceText-Book'" font-size="24">g</text>
</g>
</svg>
