<?xml version="1.0" encoding="utf-8"?>
<!-- Generator: Adobe Illustrator 17.1.0, SVG Export Plug-In . SVG Version: 6.00 Build 0)  -->
<svg version="1.2" baseProfile="tiny" xmlns="http://www.w3.org/2000/svg" xmlns:xlink="http://www.w3.org/1999/xlink" x="0px"
	 y="0px" viewBox="0 0 200 205" overflow="scroll" xml:space="preserve">
<g id="Layer_1">
</g>
<g id="Layer_2">
	<rect x="15" y="158" fill="none" width="173" height="25"/>
	<text transform="matrix(1 0 0 1 62.6323 175.3281)" font-family="'NeutrafaceText-Book'" font-size="24">W</text>
	<text transform="matrix(1 0 0 1 83.584 175.3281)" font-family="'NeutrafaceText-Book'" font-size="24">a</text>
	<text transform="matrix(1 0 0 1 94.8877 175.3281)" font-family="'NeutrafaceText-Book'" font-size="24">l</text>
	<text transform="matrix(1 0 0 1 100.3594 175.3281)" font-family="'NeutrafaceText-Book'" font-size="24">k</text>
	<text transform="matrix(1 0 0 1 111.4717 175.3281)" font-family="'NeutrafaceText-Book'" font-size="24">i</text>
	<text transform="matrix(1 0 0 1 116.7988 175.3281)" font-family="'NeutrafaceText-Book'" font-size="24">n</text>
	<text transform="matrix(1 0 0 1 129.0635 175.3281)" font-family="'NeutrafaceText-Book'" font-size="24">g</text>
	<circle fill="#333333" cx="107.7" cy="33.1" r="11.5"/>
	<path fill="#333333" d="M134.5,82.2c-2.2-1-17.1-8.4-17.1-8.4s-5.3-11.2-8-17.4c-2.6-5.8-4.4-7.3-8.1-7.3c-1.3,0-4.2,0-5.6,0
		c-3,0-4,1.1-5.8,2.1L74.8,64.2c-1.3,0.8-2.2,1.9-2.7,3.5l-3.2,21.9c-0.5,3.5,1.4,5,3.5,5.4c1.7,0.3,4.2-0.5,4.7-3
		c0.4-2,3.5-19.9,3.5-19.9l9.9-7.6c-1.6,7.6-3.3,15.9-3.8,18.7c-0.9,4.8,1.5,8.5,3.4,11.4c1.7,2.6,24.2,38,27.1,41.8
		c3,3.8,5.7,5.7,9.8,3.5c3.5-1.9,2.9-6.3,1-9.6c-1.9-3.3-24.5-40.1-24.5-40.1l3.8-16.4c0,0,2.6,3.7,4,5.9c0.7,1,1.3,1.4,3.1,2.4
		c2.1,1.2,12.2,5.8,15.3,7.1c2.7,1.2,6.1,1.7,7.5-0.7C138.3,86.1,136.6,83.2,134.5,82.2z"/>
	<path fill="#333333" d="M84.5,97.1l-4.6,16.2c0,0-9.6,13.8-12.2,17.7c-2,2.9-3.5,6.5-0.1,9c3.8,2.9,6.9-0.9,8.9-3.1
		c1.8-2.1,9.2-12.4,11.3-15.1c1.4-1.8,2.2-3.2,2.8-4.7c0.4-1,1.9-5.1,2.9-7.7L84.5,97.1z"/>
</g>
</svg>
