<?xml version="1.0" encoding="utf-8"?>
<!-- Generator: Adobe Illustrator 17.1.0, SVG Export Plug-In . SVG Version: 6.00 Build 0)  -->
<svg version="1.2" baseProfile="tiny" xmlns="http://www.w3.org/2000/svg" xmlns:xlink="http://www.w3.org/1999/xlink" x="0px"
	 y="0px" viewBox="0 0 200 205" overflow="scroll" xml:space="preserve">
<g id="Layer_1">
</g>
<g id="Layer_2">
	<rect x="15" y="158" fill="none" width="173" height="25"/>
	<text transform="matrix(1 0 0 1 71.5244 175.3281)" font-family="'NeutrafaceText-Book'" font-size="24">B</text>
	<text transform="matrix(1 0 0 1 86.1401 175.3281)" font-family="'NeutrafaceText-Book'" font-size="24">i</text>
	<text transform="matrix(1 0 0 1 91.4678 175.3281)" font-family="'NeutrafaceText-Book'" font-size="24">k</text>
	<text transform="matrix(1 0 0 1 102.5801 175.3281)" font-family="'NeutrafaceText-Book'" font-size="24">i</text>
	<text transform="matrix(1 0 0 1 107.9082 175.3281)" font-family="'NeutrafaceText-Book'" font-size="24">n</text>
	<text transform="matrix(1 0 0 1 120.1719 175.3281)" font-family="'NeutrafaceText-Book'" font-size="24">g</text>
	<path fill="#333333" d="M103.7,94.6c1.3,1.1,2,2.8,1.6,4.5l-4.6,23.1c-0.4,2.2-2.4,3.7-4.5,3.7c-0.3,0-0.6,0-0.9-0.1
		c-2.5-0.5-4.1-2.9-3.6-5.4l4-20l-23-12.8c-5.1-3.2-5.5-11.1-0.5-14.8c5.5-4.2,10.2-7.4,13.9-10.2c5.1-3.7,8.8-6,12.5-6
		c1.5,0,2.1,0,2.3,0c1.2,0,2.4,0.5,3.3,1.4l17.1,17.1h16.6c2.6,0,4.6,2.1,4.6,4.6c0,2.5-2.1,4.6-4.6,4.6h-18.5
		c-1.2,0-2.4-0.5-3.3-1.4l-2.9-2.9l-8.6-7.3l-14.8,9.7l13,11.3L103.7,94.6z M112.3,56.7c6.4,0,11.5-5.2,11.5-11.5
		s-5.2-11.5-11.5-11.5s-11.5,5.2-11.5,11.5S106,56.7,112.3,56.7z M151.6,119c0,11.5-9.2,20.8-20.8,20.8S110,130.6,110,119
		s9.2-20.8,20.8-20.8S151.6,107.5,151.6,119z M144.7,119c0-7.8-6-13.9-13.9-13.9c-7.8,0-13.9,6-13.9,13.9c0,7.9,6,13.9,13.9,13.9
		C138.7,132.9,144.7,126.9,144.7,119z M82.3,119c0,11.5-9.2,20.8-20.8,20.8s-20.8-9.2-20.8-20.8S50,98.3,61.6,98.3
		S82.3,107.5,82.3,119z M75.4,119c0-7.8-6-13.9-13.9-13.9s-13.9,6-13.9,13.9c0,7.9,6,13.9,13.9,13.9S75.4,126.9,75.4,119z"/>
</g>
</svg>
