<?xml version="1.0" encoding="utf-8"?>
<!-- Generator: Adobe Illustrator 17.1.0, SVG Export Plug-In . SVG Version: 6.00 Build 0)  -->
<svg version="1.2" baseProfile="tiny" xmlns="http://www.w3.org/2000/svg" xmlns:xlink="http://www.w3.org/1999/xlink" x="0px"
	 y="0px" viewBox="0 0 200 205" overflow="scroll" xml:space="preserve">
<g id="Layer_1">
</g>
<g id="Layer_2">
	<rect x="15" y="158" fill="none" width="173" height="25"/>
	<text transform="matrix(1 0 0 1 28.1328 175.3281)" font-family="'NeutrafaceText-Book'" font-size="24">S</text>
	<text transform="matrix(1 0 0 1 40.8765 175.3281)" font-family="'NeutrafaceText-Book'" font-size="24">e</text>
	<text transform="matrix(1 0 0 1 53.2603 175.3281)" font-family="'NeutrafaceText-Book'" font-size="24">n</text>
	<text transform="matrix(1 0 0 1 65.644 175.3281)" font-family="'NeutrafaceText-Book'" font-size="24">d</text>
	<text transform="matrix(1 0 0 1 78.8682 175.3281)" font-family="'NeutrafaceText-Book'" font-size="24"> </text>
	<text transform="matrix(1 0 0 1 84.5562 175.3281)" font-family="'NeutrafaceText-Book'" font-size="24">t</text>
	<text transform="matrix(1 0 0 1 92.5005 175.3281)" font-family="'NeutrafaceText-Book'" font-size="24">o</text>
	<text transform="matrix(1 0 0 1 105.3154 175.3281)" font-family="'NeutrafaceText-Book'" font-size="24"> </text>
	<text transform="matrix(1 0 0 1 111.0029 175.3281)" font-family="'NeutrafaceText-Book'" font-size="24">P</text>
	<text transform="matrix(1 0 0 1 124.8994 175.3281)" font-family="'NeutrafaceText-Book'" font-size="24">h</text>
	<text transform="matrix(1 0 0 1 137.2832 175.3281)" font-family="'NeutrafaceText-Book'" font-size="24">o</text>
	<text transform="matrix(1 0 0 1 150.0986 175.3281)" font-family="'NeutrafaceText-Book'" font-size="24">n</text>
	<text transform="matrix(1 0 0 1 162.4824 175.3281)" font-family="'NeutrafaceText-Book'" font-size="24">e</text>
	<path fill="#333333" d="M129.8,127.7H70.2c-9.9,0-17.9-8-17.9-17.9V50.2c0-9.9,8-17.9,17.9-17.9h27.1c-2.1,3.6-3.2,7.6-3.2,11.9
		H70.2c-3.3,0-6,2.7-6,6v59.7c0,3.3,2.7,6,6,6h59.7c3.3,0,6-2.7,6-6V96.4l11.9-8.9v22.4C147.7,119.7,139.7,127.7,129.8,127.7z
		 M121.5,84.8c-1,0.8-2.3,1.2-3.6,1.2c-0.9,0-1.8-0.2-2.7-0.6c-2-1-3.3-3.1-3.3-5.3v-5.7V74c-18.9,0-34.9,12.6-40,29.8
		c-1.1-3.8-1.8-7.8-1.8-11.9c0-23.1,18.7-41.8,41.8-41.8v-6c0-2.3,1.3-4.3,3.3-5.3c0.8-0.4,1.8-0.6,2.7-0.6c1.3,0,2.5,0.4,3.6,1.2
		l23.9,17.9c1.5,1.1,2.4,2.9,2.4,4.8c0,1.9-0.9,3.6-2.4,4.8L121.5,84.8z"/>
</g>
</svg>
