<?xml version="1.0" encoding="utf-8"?>
<!-- Generator: Adobe Illustrator 17.1.0, SVG Export Plug-In . SVG Version: 6.00 Build 0)  -->
<svg version="1.2" baseProfile="tiny" xmlns="http://www.w3.org/2000/svg" xmlns:xlink="http://www.w3.org/1999/xlink" x="0px"
	 y="0px" viewBox="0 0 200 205" overflow="scroll" xml:space="preserve">
<g id="Layer_1">
</g>
<g id="Layer_2">
	<rect x="15" y="158" fill="none" width="173" height="25"/>
	<text transform="matrix(1 0 0 1 48.7007 175.3281)" font-family="'NeutrafaceText-Book'" font-size="24">S</text>
	<text transform="matrix(1 0 0 1 61.3247 175.3281)" font-family="'NeutrafaceText-Book'" font-size="24">t</text>
	<text transform="matrix(1 0 0 1 69.5083 175.3281)" font-family="'NeutrafaceText-Book'" font-size="24">a</text>
	<text transform="matrix(1 0 0 1 80.812 175.3281)" font-family="'NeutrafaceText-Book'" font-size="24">r</text>
	<text transform="matrix(1 0 0 1 89.4995 175.3281)" font-family="'NeutrafaceText-Book'" font-size="24">t</text>
	<text transform="matrix(1 0 0 1 97.5635 175.3281)" font-family="'NeutrafaceText-Book'" font-size="24"> </text>
	<text transform="matrix(1 0 0 1 103.252 175.3281)" font-family="'NeutrafaceText-Book'" font-size="24">O</text>
	<text transform="matrix(1 0 0 1 122.6201 175.3281)" font-family="'NeutrafaceText-Book'" font-size="24">v</text>
	<text transform="matrix(1 0 0 1 133.3477 175.3281)" font-family="'NeutrafaceText-Book'" font-size="24">e</text>
	<text transform="matrix(1 0 0 1 145.7314 175.3281)" font-family="'NeutrafaceText-Book'" font-size="24">r</text>
	<path fill="#333333" d="M137.5,115.1c5.7-5.7,9.8-12.5,12.2-19.7h-15.4c-1.7,3.5-4,6.7-6.9,9.6c-14.4,14.4-37.8,14.4-52.2,0
		c-14.4-14.4-14.4-37.8,0-52.2c14.4-14.4,37.8-14.4,52.2,0c0,0,0.1,0.2,0.2,0.2v0l-8.5,8.5l27-0.1l0-27l-8.5,8.5
		c-0.1-0.1-0.2-0.1-0.2-0.2c-19.9-19.9-52.3-19.9-72.2,0c-20,20-20,52.3,0,72.3C85.2,135,117.5,135.1,137.5,115.1z"/>
</g>
</svg>
